<?xml version="1.0" standalone="no"?>
<!DOCTYPE svg PUBLIC "-//W3C//DTD SVG 20010904//EN"
 "http://www.w3.org/TR/2001/REC-SVG-20010904/DTD/svg10.dtd">
<svg version="1.0" xmlns="http://www.w3.org/2000/svg"
 width="500.000000pt" height="500.000000pt" viewBox="0 0 500.000000 500.000000"
 preserveAspectRatio="xMidYMid meet">

<g transform="translate(0.000000,500.000000) scale(0.100000,-0.100000)"
fill="#000000" stroke="none">
<path d="M847 3168 c-3 -7 -91 -227 -197 -488 -106 -261 -196 -485 -201 -498
l-9 -23 126 3 126 3 35 98 35 97 197 -2 196 -3 35 -97 35 -98 203 0 202 0 0
105 0 105 215 0 215 0 0 -105 0 -105 105 0 105 0 0 105 0 105 60 0 60 0 0 105
0 105 -60 0 -60 0 0 293 c0 160 4 285 9 277 4 -8 70 -234 146 -503 l139 -488
129 3 130 3 78 274 c43 150 80 275 82 277 2 3 40 -121 83 -273 l80 -278 129 0
129 0 138 480 c75 264 140 493 143 508 l7 28 -128 -3 -128 -3 -85 -342 c-47
-189 -88 -343 -92 -343 -3 0 -46 154 -96 343 l-90 342 -89 0 -88 0 -91 -342
c-50 -188 -93 -344 -95 -347 -3 -3 -41 138 -84 312 -44 174 -83 332 -88 350
l-9 32 -242 0 -242 -1 -207 -312 -208 -312 0 313 0 312 -115 0 -115 0 -2 -409
-3 -410 -165 410 -165 409 -106 0 c-76 0 -108 -4 -112 -12z m166 -443 c25 -66
49 -128 52 -137 7 -17 -2 -18 -105 -18 -86 0 -111 3 -108 13 11 46 104 275
109 269 4 -4 27 -61 52 -127z m1047 -5 l0 -140 -90 0 c-49 0 -90 2 -90 4 0 3
28 49 62 103 33 54 72 115 85 136 13 20 25 37 28 37 3 0 5 -63 5 -140z"/>
<path d="M3932 3163 c-13 -24 -402 -990 -402 -997 0 -3 55 -6 123 -6 l123 0
35 98 35 97 196 3 195 2 38 -100 38 -100 123 0 c68 0 124 1 124 3 0 1 -92 229
-204 507 l-205 505 -105 3 c-92 2 -106 1 -114 -15z m218 -584 c0 -5 -49 -9
-110 -9 l-110 0 24 63 c13 34 38 100 56 146 l33 85 53 -138 c30 -76 54 -142
54 -147z"/>
<path d="M2330 726 c0 -7 10 -21 23 -30 l22 -17 -22 5 c-13 2 -23 0 -23 -5 0
-13 38 -11 46 2 4 7 -3 20 -16 29 -22 17 -23 18 -4 23 16 4 16 5 -3 6 -14 1
-23 -5 -23 -13z"/>
<path d="M2400 705 c0 -19 5 -35 10 -35 6 0 10 16 10 35 0 19 -4 35 -10 35 -5
0 -10 -16 -10 -35z"/>
<path d="M2440 704 c0 -21 4 -33 10 -29 6 3 10 17 10 31 0 37 28 30 33 -8 4
-32 4 -32 5 5 2 35 0 37 -28 37 -28 0 -30 -3 -30 -36z"/>
<path d="M2534 726 c-14 -37 22 -74 47 -49 6 6 1 9 -13 9 -33 -1 -31 36 2 45
l25 7 -28 1 c-16 1 -30 -5 -33 -13z"/>
<path d="M2614 726 c-11 -29 1 -51 29 -54 15 -2 27 1 27 6 0 6 -8 8 -19 5 -10
-3 -22 0 -25 6 -5 7 3 11 19 11 20 0 26 4 23 18 -4 22 -46 29 -54 8z m46 -6
c0 -5 -7 -10 -15 -10 -8 0 -15 5 -15 10 0 6 7 10 15 10 8 0 15 -4 15 -10z"/>
<path d="M2347 633 c-13 -13 -7 -21 13 -16 13 4 20 0 20 -9 0 -8 -9 -23 -20
-33 -28 -26 -25 -35 13 -34 23 1 26 3 9 6 l-22 4 20 26 c15 19 17 30 9 44 -10
19 -30 25 -42 12z"/>
<path d="M2431 626 c-19 -23 -10 -80 13 -85 38 -7 60 53 30 83 -19 20 -28 20
-43 2z m37 -38 c-3 -36 -30 -46 -36 -15 -5 26 5 47 23 47 12 0 15 -8 13 -32z"/>
<path d="M2520 625 c-11 -13 -10 -14 3 -9 33 12 38 -7 12 -42 l-26 -34 33 1
c18 1 25 3 16 6 -22 6 -23 17 -3 33 20 16 19 46 -1 54 -21 8 -20 8 -34 -9z"/>
<path d="M2617 607 l-28 -37 25 0 c15 0 26 -7 28 -17 7 -33 14 18 8 56 l-5 35
-28 -37z m19 -24 c-10 -10 -19 5 -10 18 6 11 8 11 12 0 2 -7 1 -15 -2 -18z"/>
</g>
</svg>
